<svg width="111" height="123" viewBox="0 0 111 123" fill="none" xmlns="http://www.w3.org/2000/svg">
<path d="M111 61.5C111 27.5309 86.1551 0 55.5 0C24.8449 0 0 27.5309 0 61.5C0 95.4691 24.8449 123 55.5 123C55.8252 123 56.1504 123 56.4756 122.976V75.1213H44.5518V59.7223H56.4756V48.3832C56.4756 35.2424 63.7166 28.0834 74.2963 28.0834C79.3693 28.0834 83.727 28.4918 84.9844 28.684V42.4254H77.7C71.9549 42.4254 70.8275 45.4523 70.8275 49.8967V59.6982H84.5941L82.7947 75.0973H70.8275V120.622C94.0248 113.246 111 89.5834 111 61.5V61.5Z" fill="white"/>
</svg>
