<svg width="103" height="116" viewBox="0 0 103 116" fill="none" xmlns="http://www.w3.org/2000/svg">
<path d="M100.331 8.15315L95.5566 2.7874C92.2495 -0.929134 86.8755 -0.929134 83.5891 2.7874L7.77415 87.9658L0.167847 115.375L24.5576 106.827L100.331 21.6256C101.923 19.837 102.812 17.4445 102.812 14.8894C102.812 12.3575 101.923 9.96496 100.331 8.15315ZM82.3696 9.50039L87.1649 14.8894L16.4552 94.3768L11.66 88.9878L82.3696 9.50039ZM5.33517 109.591L10.0478 92.565L20.4651 104.272L5.33517 109.591ZM23.6275 102.437L18.8322 97.048L89.5625 17.5839L94.3578 22.9728L23.6275 102.437ZM97.9543 18.9543L96.7554 20.3016L84.7673 6.82913L85.9661 5.48189C87.9503 3.25197 91.1747 3.25197 93.159 5.48189L97.9543 10.8709C98.905 11.9394 99.4425 13.3795 99.4425 14.9126C99.4425 16.4457 98.905 17.8626 97.9543 18.9543Z" fill="white"/>
</svg>
